#!OML:ASF H:\Terrain\Patient Classification 1\Walking\liu\liu.ASF
:FULLY-SPECIFIED
:DEGREES
143
root 8.68131 16.0394 0.0474858 9.36162 -8.18809 -7.89687
lowerback -5.66386 4.66621 1.46098
upperback 0.502253 5.97931 4.16416
thorax 3.38792 2.96935 3.9923
lowerneck -19.7708 -5.62864 -13.1709
upperneck 16.7759 -7.10118 14.8453
head 9.60849 -2.61443 6.41023
rclavicle -2.18166e-014 9.14409e-015
rhumerus -14.8089 26.7141 -83.3614
rradius 40.1916
rwrist -15.2922
rhand -33.4098 -22.365
rfingers 7.12502
rthumb -6.60986 -52.2419
lclavicle -2.18166e-014 9.14409e-015
lhumerus -60.3509 13.6446 61.7733
lradius 6.92755
lwrist -34.2713
lhand -14.6304 -24.1338
lfingers 7.12502
lthumb 11.5212 5.52954
rfemur 24.4996 3.93162 29.5028
rtibia -4.13472e-014
rfoot -4.02402 5.85004
rtoes -22.88
lfemur -49.2716 3.79379 -10.621
ltibia 31.7524
lfoot -4.49857 8.3399
ltoes -6.06151
144
root 8.70253 16.0333 0.332929 9.39251 -8.20335 -7.3596
lowerback -5.86361 4.67319 0.846842
upperback 0.365305 6.03742 3.96204
thorax 3.31253 2.99135 4.13603
lowerneck -20.3822 -5.84368 -12.7077
upperneck 17.598 -7.42105 14.2264
head 10.0105 -2.76595 6.07461
rclavicle 2.04251e-014 -4.77083e-015
rhumerus -15.2249 26.1706 -83.6719
rradius 40.0591
rwrist -15.1126
rhand -32.9356 -22.2722
rfingers 7.12502
rthumb -6.15203 -52.1629
lclavicle 2.04251e-014 -4.77083e-015
lhumerus -60.6524 13.6729 61.1541
lradius 5.85227
lwrist -34.7247
lhand -18.3696 -25.8595
lfingers 7.12502
lthumb 7.9136 3.97233
rfemur 25.2281 3.91206 28.6739
rtibia -1.27222e-014
rfoot -1.9522 5.10493
rtoes -21.8687
lfemur -49.6055 4.06848 -11.6146
ltibia 33.3654
lfoot -0.866495 8.09652
ltoes -11.6444
145
root 8.72314 16.0311 0.613932 9.28288 -8.11083 -6.51517
lowerback -5.79945 4.62756 -0.104896
upperback 0.122356 6.06173 3.7235
thorax 2.95024 2.99866 4.39316
lowerneck -20.6371 -6.01161 -12.5877
upperneck 18.3014 -7.68969 14.0011
head 10.3325 -2.89047 5.94887
rclavicle 1.4561e-014 1.59028e-014
rhumerus -16.0754 25.5855 -84.0673
rradius 40.1313
rwrist -14.9134
rhand -32.9768 -22.876
rfingers 7.12502
rthumb -6.19186 -52.7655
lclavicle 1.4561e-014 1.59028e-014
lhumerus -60.987 13.6248 60.5824
lradius 5.43536
lwrist -36.0543
lhand -19.8367 -26.1179
lfingers 7.12502
lthumb 6.49749 3.76246
rfemur 26.0082 3.72919 27.5587
rtibia -2.54444e-014
rfoot 0.461391 4.17794
rtoes -21.5728
lfemur -49.577 4.07058 -12.8954
ltibia 34.8639
lfoot 0.395992 8.93656
ltoes -13.1907
146
root 8.73859 16.0198 0.87368 9.16969 -7.91383 -5.75449
lowerback -5.51087 4.58144 -1.02015
upperback -0.10278 6.07831 3.51831
thorax 2.48202 3.00841 4.64484
lowerneck -20.5359 -6.2166 -12.8375
upperneck 18.4209 -7.98424 14.2359
head 10.4257 -3.0213 6.03664
rclavicle -2.86747e-014 9.14409e-015
rhumerus -16.9325 25.0289 -84.3417
rradius 40.2836
rwrist -14.4625
rhand -32.8581 -23.3454
rfingers 7.12502
rthumb -6.07724 -53.2383
lclavicle -2.86747e-014 9.14409e-015
lhumerus -61.048 13.6676 60.1205
lradius 5.40139
lwrist -36.1547
lhand -19.17 -25.8468
lfingers 7.12502
lthumb 7.1411 4.01274
rfemur 23.3831 3.33949 26.6084
rtibia 6.71905
rfoot 0.485161 4.11427
rtoes -21.1651
lfemur -49.6246 3.98134 -13.9658
ltibia 36.3798
lfoot 1.19272 9.4658
ltoes -11.5167
147
root 8.75446 16.0073 1.13582 9.01444 -7.72728 -5.352
lowerback -5.28584 4.59067 -1.51715
upperback -0.221231 6.12972 3.37425
thorax 2.1934 3.03749 4.74431
lowerneck -20.356 -6.41567 -13.0117
upperneck 18.3583 -8.27528 14.4334
head 10.4349 -3.15352 6.09138
rclavicle 3.55328e-014 7.15625e-015
rhumerus -17.779 24.8904 -84.6687
rradius 40.4046
rwrist -14.9446
rhand -33.4658 -22.3967
rfingers 7.12502
rthumb -6.6639 -52.2718
lclavicle 3.55328e-014 7.15625e-015
lhumerus -60.9788 13.7093 59.6705
lradius 5.49831
lwrist -36.244
lhand -18.7223 -25.7274
lfingers 7.12502
lthumb 7.57318 4.11698
rfemur 21.407 3.01006 26.0258
rtibia 12.2392
rfoot 1.85306 3.07087
rtoes -19.7967
lfemur -49.6823 4.34437 -14.8947
ltibia 38.0088
lfoot 2.22553 8.42759
ltoes -9.57515
148
root 8.77516 15.9943 1.41354 8.88924 -7.61533 -5.14975
lowerback -5.30654 4.59528 -1.76273
upperback -0.324523 6.1547 3.28819
thorax 2.07962 3.05205 4.78814
lowerneck -20.0149 -6.39619 -13.0987
upperneck 18.3407 -8.31594 14.6613
head 10.3882 -3.16759 6.18784
rclavicle -2.45499e-014 -1.03368e-014
rhumerus -18.496 24.7857 -85.0151
rradius 40.3018
rwrist -15.4055
rhand -33.2492 -21.7311
rfingers 7.12502
rthumb -6.4548 -51.6128
lclavicle -2.45499e-014 -1.03368e-014
lhumerus -60.8876 13.8352 59.164
lradius 5.45374
lwrist -36.5125
lhand -18.5668 -25.7681
lfingers 7.12502
lthumb 7.72326 4.07083
rfemur 19.82 1.92111 25.2278
rtibia 16.9149
rfoot 4.15504 2.47604
rtoes -19.9512
lfemur -49.6399 4.8042 -15.661
ltibia 39.5647
lfoot 2.06889 7.14846
ltoes -4.82505
149
root 8.79686 15.9837 1.68105 8.84746 -7.4778 -4.90586
lowerback -5.20757 4.53763 -2.07863
upperback -0.562331 6.10144 3.22165
thorax 1.75805 3.03436 4.86747
lowerneck -19.5332 -6.2986 -13.33
upperneck 18.2857 -8.2506 15.0374
head 10.2988 -3.13433 6.38316
rclavicle -5.25785e-014 1.70955e-014
rhumerus -19.3501 24.6718 -85.4265
rradius 40.109
rwrist -15.7681
rhand -32.7872 -21.643
rfingers 7.12502
rthumb -6.00872 -51.5378
lclavicle -5.25785e-014 1.70955e-014
lhumerus -60.9492 14.0174 58.5965
lradius 5.81429
lwrist -36.0223
lhand -16.7521 -25.2879
lfingers 7.12502
lthumb 9.4745 4.4791
rfemur 18.1311 0.653644 24.3684
rtibia 21.4433
rfoot 6.17651 2.49278
rtoes -22.176
lfemur -49.5847 5.23129 -16.4256
ltibia 40.91
lfoot 0.969757 5.96937
ltoes -0.920783
